PathFileType	4	(X/Y/Z)	./resultDataOpenSim/trcMotMarkerGrf/sub09/qtm-15-08.trc
DataRate	CameraRate	NumFrames	NumMarkers	Units	OrigDataRate	OrigDataStartFrame	OrigNumFrames
250.000000	250.000000	12	24	m	250.000000	1	466
Frame#	Time	L.Toe.Tip			R.Toe.Tip			L.Ankle.Lat			R.Ankle.Lat			L.Ankle.Med			R.Ankle.Med			L.Heel			R.Heel			L.Knee.Lat			R.Knee.Lat			L.Knee.Med			R.Knee.Med			L.Thigh.Upper			R.Thigh.Upper			L.ASIS			R.ASIS			V.Sacral			L.Acromium			R.Acromium			C7			L.Elbow			R.Elbow			L.Wrist.Lat			R.Wrist.Lat
		X1	Y1	Z1	X2	Y2	Z2	X3	Y3	Z3	X4	Y4	Z4	X5	Y5	Z5	X6	Y6	Z6	X7	Y7	Z7	X8	Y8	Z8	X9	Y9	Z9	X10	Y10	Z10	X11	Y11	Z11	X12	Y12	Z12	X13	Y13	Z13	X14	Y14	Z14	X15	Y15	Z15	X16	Y16	Z16	X17	Y17	Z17	X18	Y18	Z18	X19	Y19	Z19	X20	Y20	Z20	X21	Y21	Z21	X22	Y22	Z22	X23	Y23	Z23	X24	Y24	Z24

1	0	-1.5334309	0.036555813	-0.032920744	-0.89192909	0.096520682	0.084393686	-1.6792714	0.085501572	-0.059715145	-1.0427144	0.071064972	0.10512827	-1.6505421	0.1018151	0.033217072	-1.0339668	0.11352368	0.016189678	NaN	NaN	NaN	-1.0902345	0.03140491	0.046279833	-1.5252299	0.47256905	-0.126611	-1.1543877	0.51556434	0.15715116	-1.5208289	0.47385536	0.00099209188	-1.1429911	0.50137464	0.030899316	-1.3943345	0.87224398	-0.170817	-1.3563887	0.86339679	0.1979554	-1.28467	0.94098956	-0.12004376	-1.2760484	0.94678192	0.11963226	-1.4434213	1.0093629	0.013061707	-1.2432787	1.3934438	-0.15623811	-1.2837624	1.4079982	0.16879086	-1.3259425	1.4554599	0.0017597348	-1.3169955	1.0209143	-0.23762729	-1.4549647	1.0972694	0.25448594	-1.0514776	0.96121592	-0.19535734	-1.3904941	0.84036215	0.311021
2	0.004	-1.5333526	0.036525257	-0.032953502	-0.87639413	0.1011393	0.084621023	-1.6786109	0.086521955	-0.060003088	-1.0268683	0.071905912	0.10505784	-1.6499127	0.10258888	0.033001342	-1.0187338	0.11468556	0.016209767	NaN	NaN	NaN	-1.0730521	0.031180883	0.046509863	-1.5201326	0.4724529	-0.1259407	-1.14806	0.51403327	0.15703573	-1.5166381	0.47359018	0.00081287569	-1.136366	0.50001287	0.03064822	-1.3884139	0.87113832	-0.17047447	-1.3498743	0.86179791	0.19817271	-1.2781363	0.93999776	-0.11981592	-1.2696558	0.94532145	0.11968418	-1.4371506	1.0078286	0.013442213	-1.2370672	1.3921134	-0.15589098	-1.2776121	1.4064683	0.16908087	-1.3198674	1.4540709	0.0018760599	-1.3098294	1.0192859	-0.23726456	-1.4486784	1.0954758	0.25451245	-1.0439883	0.96153618	-0.19457684	-1.3844494	0.83858451	0.31089241
3	0.008	-1.5332689	0.036498737	-0.032991758	-0.86120947	0.10575636	0.084769539	-1.6779909	0.087540633	-0.060300362	-1.0110686	0.072891469	0.10504333	-1.6492704	0.10338925	0.03275152	-1.0038453	0.11588205	0.016208022	NaN	NaN	NaN	-1.0561626	0.031005914	0.046872932	-1.515327	0.4722653	-0.12559428	-1.1412483	0.512608	0.15704539	-1.5124988	0.47329122	0.00068368199	-1.1297505	0.49865314	0.03039849	-1.3824512	0.87002041	-0.17014423	-1.3432915	0.86017143	0.1983653	-1.2716561	0.93893762	-0.11964902	-1.2631843	0.9438729	0.11973109	-1.4308768	1.0062699	0.013805498	-1.2308523	1.3907899	-0.15555534	-1.2714545	1.4049526	0.1693874	-1.3137565	1.4527068	0.002037828	-1.302667	1.0176862	-0.23690201	-1.4422637	1.0935707	0.25446904	-1.0365281	0.96177174	-0.19379738	-1.3783358	0.83681235	0.31075569
4	0.012	-1.5331751	0.036475977	-0.033035704	-0.84658494	0.11031734	0.08482002	-1.6773786	0.088592849	-0.06062462	-0.99524495	0.074154012	0.10513589	-1.6485927	0.10422669	0.032454095	-0.98948898	0.11712444	0.016176367	NaN	NaN	NaN	-1.0397791	0.030923289	0.047358729	-1.510798	0.47197102	-0.12557816	-1.1336962	0.51132838	0.15723845	-1.5083534	0.47294613	0.00061397092	-1.1231446	0.4972945	0.030161645	-1.3764156	0.86888956	-0.16984791	-1.3365705	0.85852312	0.19853759	-1.2652873	0.93776424	-0.11960646	-1.2565927	0.94245108	0.11979122	-1.4245806	1.0046804	0.014166997	-1.2246099	1.3894764	-0.15522508	-1.2652579	1.4034577	0.16971303	-1.3075505	1.4513698	0.0023414979	-1.2955181	1.0161406	-0.23655554	-1.4356621	1.091566	0.25432944	-1.0291001	0.96187251	-0.19302222	-1.3720826	0.83505015	0.31060038
5	0.016	-1.5330697	0.036455499	-0.033083484	-0.83260644	0.1147117	0.084778499	-1.6766972	0.089710309	-0.060996486	-0.97936815	0.075757461	0.10533632	-1.6478517	0.10510715	0.032114798	-0.97574653	0.11838502	0.016111262	NaN	NaN	NaN	-1.0240679	0.030958837	0.047828705	-1.5063224	0.4715823	-0.12570858	-1.1256311	0.51015121	0.15755485	-1.5040866	0.47256968	0.00057775289	-1.1165673	0.4959421	0.029944362	-1.3703053	0.8677563	-0.16960037	-1.329689	0.85688425	0.19870778	-1.2590676	0.93647314	-0.11973218	-1.2499046	0.94107308	0.11988616	-1.4182472	1.0030783	0.01455356	-1.2183236	1.3881783	-0.15487798	-1.2590046	1.4019885	0.17005777	-1.3011724	1.4500654	0.0029894149	-1.2884119	1.0146713	-0.23624439	-1.4289446	1.089593	0.25414948	-1.021711	0.96183917	-0.19225899	-1.3656655	0.83330595	0.31041492
6	0.02	-1.5329528	0.036437762	-0.033137031	-0.81927412	0.11882137	0.08464098	-1.6758865	0.090893731	-0.061437196	-0.96375246	0.077565003	0.10552303	-1.6470364	0.10604356	0.031737187	-0.96258785	0.1196267	0.01600489	NaN	NaN	NaN	-1.0091283	0.031100132	0.048156479	-1.5016989	0.47113925	-0.12586002	-1.1175942	0.50899848	0.15785603	-1.4995913	0.47218293	0.00053957895	-1.1100398	0.49461663	0.029738731	-1.3641135	0.86662802	-0.16936715	-1.32265	0.85528367	0.19889106	-1.2529254	0.93511409	-0.11999079	-1.2431702	0.9397491	0.12001521	-1.4118638	1.0014862	0.014976955	-1.211989	1.386904	-0.1544999	-1.2526857	1.4005447	0.17042207	-1.2945567	1.4488162	0.0041873378	-1.2813589	1.0132854	-0.2359498	-1.4222051	1.0877459	0.25400146	-1.0143741	0.96170404	-0.19151432	-1.3590994	0.83158259	0.31019566
7	0.024	-1.5328231	0.03642383	-0.033200069	-0.80657239	0.12255644	0.084412629	-1.6749648	0.092130056	-0.06194872	-0.94903743	0.079232468	0.10554068	-1.6461584	0.10704442	0.031314001	-0.94987277	0.12083696	0.015857934	NaN	NaN	NaN	-0.99499525	0.031294343	0.048286345	-1.4968519	0.47067637	-0.12599369	-1.1099164	0.50783988	0.15805938	-1.4948225	0.47177935	0.00047577555	-1.1035371	0.49335081	0.029539173	-1.3578086	0.8654987	-0.16905669	-1.3154617	0.85373627	0.19909924	-1.2467034	0.93377215	-0.12026788	-1.2364184	0.93848101	0.12016076	-1.4054248	0.99991256	0.015431046	-1.2056083	1.3856621	-0.15409894	-1.2462841	1.3991209	0.17079861	-1.287767	1.4476262	0.0057996338	-1.2743365	1.0119661	-0.23560317	-1.4154641	1.0860099	0.25390392	-1.0071091	0.96149412	-0.19079231	-1.3524126	0.82987467	0.30994816
8	0.028	-1.5326794	0.036414412	-0.033272618	-0.79452143	0.12587903	0.084111943	-1.6740682	0.093411346	-0.06248784	-0.93566411	0.080472456	0.10537999	-1.6452316	0.10811129	0.030836727	-0.93753553	0.12199739	0.015671604	NaN	NaN	NaN	-0.98165594	0.031465401	0.048184997	-1.4918051	0.47020708	-0.12609436	-1.1025107	0.50671627	0.15820237	-1.4898068	0.47132942	0.00038312767	-1.0969624	0.49217591	0.029359172	-1.3513563	0.8643528	-0.16859944	-1.3081431	0.85224626	0.19933518	-1.240294	0.93250421	-0.12046746	-1.2296347	0.93727033	0.12030927	-1.3989265	0.99835272	0.01590773	-1.1991787	1.3844579	-0.15368765	-1.2397942	1.3977157	0.17118086	-1.2810024	1.4464572	0.0073117393	-1.2673127	1.0106801	-0.2351408	-1.4086979	1.0843362	0.25384306	-0.99993805	0.96121357	-0.19009842	-1.3456385	0.82817746	0.30967244
9	0.032	-1.5325228	0.036410141	-0.033350857	-0.78317538	0.12879095	0.083754397	-1.6733986	0.094749427	-0.062987893	-0.92358708	0.081257885	0.1051269	-1.6442595	0.10924918	0.030301686	-0.92577159	0.12302733	0.0154141	NaN	NaN	NaN	-0.96908183	0.031536721	0.047822512	-1.4866094	0.46973633	-0.12616005	-1.0951376	0.50567761	0.15836449	-1.484561	0.47082343	0.00026402435	-1.0902098	0.49112123	0.02922365	-1.344761	0.86318045	-0.16803828	-1.3007217	0.85081721	0.19959074	-1.2336969	0.93130767	-0.12056971	-1.2227857	0.9361248	0.12046352	-1.3923592	0.99679836	0.016407885	-1.1926984	1.3832937	-0.15326864	-1.2332376	1.3963367	0.1715707	-1.2744094	1.4452691	0.0083392607	-1.2602813	1.0094008	-0.2345654	-1.4018889	1.0826984	0.25380686	-0.99287768	0.96085264	-0.18943741	-1.3388072	0.82649227	0.30935958
10	0.036	-1.532357	0.036411179	-0.033431806	-0.77257769	0.13127881	0.083354025	-1.6730588	0.096171893	-0.063426162	-0.91253507	0.081717794	0.10478744	-1.6432368	0.11046743	0.029708115	-0.91485846	0.1238158	0.015036736	NaN	NaN	NaN	-0.95727656	0.031466071	0.0472252	-1.4812927	0.46926666	-0.12621271	-1.0876649	0.5047238	0.15857634	-1.4790434	0.47028181	0.00011088889	-1.0832601	0.49020958	0.029142872	-1.338066	0.86198719	-0.16749631	-1.2932315	0.84945392	0.19985916	-1.2269615	0.93015001	-0.12059999	-1.2158592	0.9350471	0.1206366	-1.3857152	0.99524423	0.016932385	-1.1861851	1.382169	-0.1528411	-1.226628	1.3949934	0.17196952	-1.2679704	1.4440616	0.008938713	-1.2532716	1.0081334	-0.23393949	-1.3950335	1.0810917	0.25379123	-0.98590324	0.96040069	-0.1887949	-1.3319262	0.82482635	0.30900786
11	0.04	-1.5321825	0.036417325	-0.033517131	-0.76273466	0.13328931	0.082924131	-1.6728884	0.097692817	-0.063869392	-0.90231207	0.081947308	0.10429119	-1.6421569	0.1117693	0.02905717	-0.90486012	0.12430282	0.014528677	NaN	NaN	NaN	-0.94627184	0.031248974	0.04652399	-1.4758532	0.46878671	-0.12628789	-1.0800822	0.50382627	0.15881377	-1.4732471	0.46971517	-7.504588e-05	-1.0761847	0.48943654	0.029097871	-1.331309	0.8607893	-0.16705348	-1.2857013	0.8481638	0.20014462	-1.2201286	0.92900754	-0.12058584	-1.20888	0.93402322	0.12083779	-1.3789961	0.99369595	0.017483534	-1.1796712	1.3810797	-0.15240348	-1.2199595	1.3936903	0.17237401	-1.2615922	1.4428608	0.0093729345	-1.2463214	1.0069104	-0.23332706	-1.3881325	1.0795168	0.2537978	-0.97891768	0.95985058	-0.1881256	-1.3249752	0.82319474	0.30862809
12	0.044	-1.5319926	0.036429616	-0.033614045	-0.7536308	0.13476001	0.082467499	-1.6725282	0.099304676	-0.064435219	-0.89285842	0.081947204	0.10360685	-1.641029	0.11314584	0.028347919	-0.89566132	0.12448369	0.013923358	NaN	NaN	NaN	-0.93608861	0.030877676	0.045878819	-1.4702691	0.46827487	-0.12640449	-1.0724131	0.50297676	0.15903523	-1.4672804	0.46909411	-0.00026273639	-1.0690438	0.48877168	0.029056483	-1.3244928	0.85960087	-0.16669349	-1.2781357	0.84695508	0.20045575	-1.2132149	0.92787253	-0.12053909	-1.2018836	0.93303703	0.12107043	-1.3722083	0.99217038	0.018072257	-1.1731756	1.3800224	-0.15195145	-1.2132412	1.3924265	0.17278581	-1.2552074	1.4416835	0.0098239329	-1.2394469	1.0057592	-0.23275138	-1.3811855	1.0779719	0.25382998	-0.97184138	0.95919992	-0.18739729	-1.3179208	0.82161111	0.30823003
